<svg xmlns="http://www.w3.org/2000/svg" width="256" height="256" viewBox="0 0 100 100"><rect width="100" height="100" rx="20" fill="#7d6ee7"></rect><path fill="#fff" d="M28.51 85.75L28.51 85.75Q27.64 87.91 25.54 88.77Q23.43 89.63 21.33 88.77Q19.22 87.91 18.36 85.80Q17.49 83.69 18.36 81.64L18.36 81.64Q20.52 76.35 24.03 65.55Q27.54 54.75 29.05 50.97L29.05 50.97Q29.80 48.81 35.20 35.63L35.20 35.63Q40.28 22.67 43.09 14.57L43.09 14.57Q43.84 12.41 45.84 11.39Q47.84 10.36 50 11.12L50 11.12Q50.97 11.44 51.73 12.09L51.73 12.09Q53.89 12.85 54.75 15.01L54.75 15.01L81.64 81.43Q82.51 83.59 81.64 85.69Q80.78 87.80 78.67 88.66Q76.57 89.53 74.46 88.66Q72.36 87.80 71.49 85.75L71.49 85.75L63.39 64.79Q58.96 65.01 58.42 65.01L58.42 65.01Q43.84 65.55 35.53 65.55L35.53 65.55Q30.67 79.81 28.51 85.75L28.51 85.75ZM39.52 54.53L39.52 54.53Q48.60 54.43 58.96 54.10L58.96 54.10L49.14 30.34L39.52 54.53Z"></path></svg>